<svg preserveAspectRatio="none" width="100%" height="100%" overflow="visible" style="display: block;" viewBox="0 0 54 36" fill="none" xmlns="http://www.w3.org/2000/svg">
<g id="Izzy Logo">
<g id="Iz">
<path d="M7.00179 15.042C6.98789 14.8881 6.98095 14.6993 6.98095 14.4755C6.98789 14.1259 7.00527 13.6923 7.03306 13.1748C7.07475 12.3357 7.19288 11.7622 7.38745 11.4545L8.95093 11.465C8.93703 10.3182 8.93008 9.3007 8.93008 8.41259C8.93008 7.3007 8.94051 6.39161 8.96135 5.68531L7.57507 5.64336L7.38745 5.4965C7.32491 5.44056 7.26585 4.97902 7.21026 4.11189C7.16161 3.23776 7.13034 2.37762 7.11645 1.53147L7.08518 0.262238C7.30059 0.199301 7.81133 0.136364 8.61739 0.0734266C9.22193 0.0244755 9.88207 0 10.5978 0C10.8341 0 11.0773 0.0034965 11.3274 0.0104895C12.3142 0.0314685 13.0299 0.118881 13.4746 0.272727C13.4885 0.363636 13.5024 0.486014 13.5163 0.63986C13.5302 0.793706 13.5545 1.08741 13.5893 1.52098C13.6309 1.94755 13.6622 2.34965 13.6831 2.72727C13.7039 3.1049 13.7143 3.5035 13.7143 3.92308C13.7143 4.34266 13.6935 4.67832 13.6518 4.93007C12.5539 4.97203 11.9181 5.0035 11.7443 5.02448C11.7166 6.61888 11.6575 9.02098 11.5672 12.2308C11.6714 12.2448 11.9632 12.2657 12.4427 12.2937C12.9291 12.3217 13.1932 12.3357 13.2349 12.3357C13.2766 12.6783 13.2974 13.035 13.2974 13.4056C13.3044 13.5594 13.3009 13.7203 13.287 13.8881C13.2592 14.4336 13.214 14.9301 13.1515 15.3776L13.0577 16.049C12.606 16.2028 11.9215 16.2902 11.0043 16.3112C10.775 16.3182 10.5526 16.3217 10.3372 16.3217C9.68403 16.3217 9.07948 16.2972 8.52358 16.2483C7.78701 16.1853 7.30754 16.1224 7.08518 16.0594C7.05738 15.7937 7.02959 15.4545 7.00179 15.042Z" fill="var(--fill-0, #7A88FE)"/>
<path d="M14.0028 6.31469C14.0098 5.53147 14.0654 4.9021 14.1696 4.42657L14.326 3.71329C14.8124 3.66434 15.4864 3.63986 16.3481 3.63986C17.0291 3.64685 17.8282 3.66434 18.7454 3.69231C20.8231 3.76224 22.2962 3.84615 23.1648 3.94406C23.1996 4.34965 23.2343 4.93007 23.2691 5.68531C23.3108 6.44056 23.3455 7.30769 23.3733 8.28671C23.3803 8.55944 23.3803 8.8042 23.3733 9.02098C23.3733 9.58741 23.3525 9.98601 23.3108 10.2168C23.3177 10.2378 23.0745 10.4685 22.5811 10.9091C22.0947 11.3497 21.4659 11.8881 20.6945 12.5245C19.9302 13.1608 19.2527 13.6958 18.662 14.1294L22.3518 14.2133L22.4769 14.6434C22.4978 14.6643 22.5221 14.7063 22.5499 14.7692C22.5777 14.8252 22.5916 15 22.5916 15.2937C22.5916 15.5804 22.5429 15.9301 22.4456 16.3427C22.4456 16.3566 22.2928 16.3636 21.987 16.3636C21.6535 16.3636 21.1358 16.3566 20.434 16.3427C19.0998 16.3007 17.7656 16.2517 16.4315 16.1958L14.4302 16.1119L14.3155 14.2238L16.6086 12.0734L20.3506 9.07343C19.5862 9.12937 18.6898 9.15734 17.6614 9.15734C17.4112 9.15035 17.1472 9.14685 16.8692 9.14685C15.5073 9.13287 14.6421 9.08042 14.2739 8.98951C14.0932 8.01748 14.0028 7.15385 14.0028 6.3986C14.0028 6.37063 14.0028 6.34266 14.0028 6.31469Z" fill="var(--fill-0, #7A88FE)"/>
</g>
<g id="Vector 233">
</g>
<g id="PEA">
<path d="M6.3641e-07 17.8269L0.414323 17.4178C0.549824 17.3654 0.852097 17.2893 1.32114 17.1897C1.7954 17.09 2.11852 17.0297 2.2905 17.0087C2.88462 16.9511 3.46311 16.9222 4.02596 16.9222C4.28654 16.9275 4.54191 16.9353 4.79207 16.9458C5.58423 16.9878 6.25913 17.0507 6.81677 17.1346L7.64542 17.2762C7.72359 17.8636 7.76268 18.6241 7.76268 19.5577C7.76268 20.9476 7.67669 22.7203 7.50471 24.8759C6.72818 24.9336 6.03243 24.9677 5.41746 24.9782C5.14646 24.9834 4.90933 24.986 4.70608 24.986C4.45592 24.986 4.26048 24.9808 4.11977 24.9703C3.86961 24.9598 3.53086 24.9336 3.10351 24.8916C2.68137 24.8444 2.42079 24.8156 2.32177 24.8051V28.7072L1.98562 28.8724L0.289244 28.7544L6.3641e-07 17.8269ZM1.85272 22.0909C1.85272 22.1276 1.85272 22.1539 1.85272 22.1696C1.85272 22.1853 1.85272 22.2063 1.85272 22.2325C1.85272 22.285 1.85794 22.3584 1.86836 22.4528C1.87878 22.5787 1.89181 22.6941 1.90745 22.799L1.9309 22.9406C1.96738 22.9458 2.01428 22.9537 2.07161 22.9642C2.12373 22.9799 2.21233 22.993 2.3374 23.0035C2.426 23.014 2.49896 23.0166 2.55629 23.0114C2.58235 23.0114 2.6032 23.0114 2.61883 23.0114C2.62925 23.0114 2.64489 23.0114 2.66573 23.0114C2.75433 23.0166 2.91589 23.0087 3.15041 22.9878C3.43705 22.9668 3.70805 22.9406 3.96342 22.9091L4.33866 22.8619C4.39077 22.5787 4.41683 22.285 4.41683 21.9808C4.41683 21.6713 4.4012 21.3986 4.36993 21.1626L4.33084 20.8007L1.9309 20.84C1.92569 20.924 1.91526 21.0315 1.89963 21.1626C1.88921 21.2885 1.87878 21.472 1.86836 21.7133C1.85794 21.8864 1.85272 22.0122 1.85272 22.0909Z" fill="#F055A5"/>
<path d="M7.90527 20.9108C7.91569 19.6521 7.92351 18.8313 7.92872 18.4484C7.93914 18.3016 7.97041 18.1337 8.02253 17.9449C8.07465 17.7561 8.12416 17.604 8.17106 17.4886L8.24923 17.3156L14.9566 17.1425L15.4491 17.174C15.4751 17.3051 15.5038 17.4808 15.5351 17.7011C15.5715 17.9213 15.5898 18.299 15.5898 18.8339C15.5898 19.3689 15.5298 19.8199 15.41 20.1871C15.0608 20.2343 13.8361 20.3103 11.7358 20.4152C11.7306 20.5044 11.7254 20.6224 11.7202 20.7692C11.7202 20.785 11.7202 20.8059 11.7202 20.8322C11.7202 20.9895 11.7358 21.236 11.7671 21.5717C11.8088 21.9598 11.8817 22.2981 11.986 22.5865L14.0107 22.5787C14.0524 22.5787 14.1045 22.5787 14.167 22.5787C14.2348 22.5734 14.339 22.5708 14.4797 22.5708C14.6204 22.5656 14.7377 22.5629 14.8315 22.5629C14.9253 22.5577 14.9696 22.5525 14.9644 22.5472C14.9592 22.542 14.967 22.6049 14.9878 22.736C15.0087 22.8671 15.0295 22.9983 15.0504 23.1294L15.0816 23.3261V24.3016C14.2061 24.3645 12.9214 24.4039 11.2277 24.4196L11.1729 26.41L11.3684 26.6224L15.1833 26.6539C15.0478 26.6434 14.9748 26.6329 14.9644 26.6224C14.9592 26.6171 14.9852 26.6355 15.0426 26.6775C15.1051 26.7142 15.165 26.7535 15.2224 26.7955L15.3162 26.8505L15.3943 29.0848C15.3943 29.0848 15.41 29.0795 15.4412 29.0691C15.3943 29.0481 15.0347 29.0376 14.3624 29.0376C14.0914 29.0376 13.7735 29.0402 13.4087 29.0455C13.268 29.0455 13.1273 29.0455 12.9866 29.0455C12.3612 29.0455 11.741 29.035 11.126 29.014C10.3756 28.993 9.80229 28.9694 9.40621 28.9432C9.01013 28.9117 8.77561 28.8881 8.70264 28.8724C8.6818 28.8671 8.66095 28.8593 8.6401 28.8488C8.62447 28.833 8.60623 28.8121 8.58538 28.7858C8.56975 28.7596 8.55151 28.7334 8.53066 28.7072C8.51503 28.6809 8.49679 28.6442 8.47594 28.597C8.45509 28.5498 8.43685 28.5105 8.42122 28.479C8.41079 28.4476 8.39255 28.403 8.3665 28.3453C8.34565 28.2823 8.32741 28.2351 8.31177 28.2037C8.30135 28.167 8.28311 28.1145 8.25705 28.0463C8.23099 27.9729 8.21275 27.9205 8.20233 27.889C8.0981 27.6005 8.01992 26.6801 7.96781 25.1276C7.92612 23.8322 7.90527 22.639 7.90527 21.5481C7.90527 21.333 7.90527 21.1206 7.90527 20.9108Z" fill="#FABE37"/>
<path d="M15.3649 28.3925C15.49 25.7806 15.7897 22.0909 16.2639 17.3234C16.5297 17.2552 16.8242 17.2028 17.1473 17.1661C17.4704 17.1346 17.8092 17.1136 18.1636 17.1032C18.4294 17.0979 18.6795 17.0927 18.914 17.0874C18.9922 17.0874 19.0678 17.0874 19.1408 17.0874C19.4378 17.0874 19.7687 17.1032 20.1336 17.1346C20.5036 17.1608 20.7824 17.1818 20.97 17.1976C21.1576 17.208 21.4 17.229 21.697 17.2605L22.1426 17.3077C22.2417 18.1731 22.4631 19.9222 22.8071 22.5551C23.1511 25.1827 23.3934 27.2491 23.5341 28.7544C23.4664 28.7544 23.1042 28.7596 22.4475 28.7701C22.1192 28.7754 21.8586 28.778 21.6658 28.778C21.4782 28.778 21.3557 28.7754 21.2984 28.7701C21.2306 28.5184 21.1889 28.3479 21.1733 28.2587C21.1576 28.1643 21.0743 27.5953 20.9231 26.5516L19.5082 26.4572L19.3909 28.8802L15.6307 28.6914L15.3649 28.3925ZM19.0235 22.1381L19.0626 24.4432L20.9935 24.5533L20.8371 22.028C20.4358 22.0018 20.0997 21.9886 19.8287 21.9886C19.344 21.9886 19.0782 22.0332 19.0313 22.1224L19.0235 22.1381Z" fill="#CCD537"/>
</g>
<path id="z" d="M25.8626 9.16861C26.2808 8.20393 26.6787 7.45523 27.0562 6.92251L27.6226 6.12343C28.2496 6.32054 29.0957 6.6473 30.1611 7.10369C30.9994 7.47303 31.9782 7.91791 33.0977 8.43833C35.6299 9.62529 37.4074 10.5093 38.4301 11.0904C38.261 11.6103 38.0004 12.3463 37.6483 13.2985C37.3049 14.2544 36.8943 15.3449 36.4167 16.5701C36.2826 16.9109 36.1546 17.2135 36.0327 17.4779C35.7364 18.1782 35.5022 18.66 35.3299 18.9232C35.3276 18.9529 34.9062 19.1094 34.0658 19.3927C33.234 19.6798 32.1748 20.0125 30.8884 20.3907C29.6105 20.7726 28.4931 21.0752 27.536 21.2984L32.0542 23.3565L31.9839 23.9545C31.9987 23.9915 32.0068 24.0563 32.0083 24.1488C32.0134 24.2327 31.9391 24.4562 31.7855 24.8193C31.6356 25.1738 31.3926 25.5804 31.0565 26.0389C31.0492 26.0562 30.8565 25.9839 30.4785 25.822C30.0661 25.6453 29.4297 25.3624 28.5693 24.9734C26.9417 24.2149 25.3178 23.4477 23.6975 22.6718L21.267 21.5081L22.1127 19.1129L26.0725 17.6688L32.268 15.9417C31.2937 15.606 30.1708 15.1658 28.8992 14.6211C28.5936 14.4799 28.2689 14.3357 27.9253 14.1885C26.2487 13.4498 25.2065 12.9267 24.7987 12.6193C25.0837 11.3218 25.4237 10.2061 25.8187 9.27236C25.8333 9.23778 25.8479 9.20319 25.8626 9.16861Z" fill="var(--fill-0, #7A88FE)"/>
<path id="Subtract" d="M46.4554 0.751798C46.8327 0.986082 47.3123 1.3004 47.8929 1.69516C48.4735 2.08993 49.3858 2.764 50.6302 3.71664C52.4852 5.12589 53.4064 5.92659 53.3929 6.11899C53.3892 6.16692 52.7158 6.81457 51.3743 8.06039C50.0201 9.31718 48.4354 10.7672 46.6204 12.41C44.8053 14.0529 43.3726 15.322 42.3216 16.2166C42.2114 17.0278 42.0798 18.3494 41.9271 20.1815C41.8562 21.1041 41.7895 21.9731 41.7269 22.7879C41.6643 23.6027 41.6053 24.3698 41.5501 25.0887L41.3861 27.2284L36.8734 26.3163L36.3304 25.4422C36.3276 23.1396 36.4078 20.9219 36.5716 18.7889C36.5842 18.625 36.599 18.4617 36.6126 18.2987C36.7403 18.0515 36.8865 17.7465 37.0492 17.3827C37.1795 17.1154 37.3161 16.8092 37.4593 16.4647C37.9698 15.226 38.4096 14.1235 38.7767 13.1571C39.153 12.1943 39.4308 11.4493 39.6117 10.9237C38.5185 10.3361 36.6188 9.44209 33.9124 8.24203C33.8884 8.23145 33.8641 8.2213 33.8402 8.21078C32.883 6.71685 32.1247 5.53768 31.5638 4.67465L30.6468 3.28305L31.2581 2.57113C33.1801 1.09346 34.6 0.390702 35.5169 0.461759C35.6122 0.469169 37.1212 2.90048 40.0423 7.75668C41.0072 6.42151 41.9495 5.14475 42.8695 3.9266C43.7896 2.70828 44.4695 1.82112 44.9076 1.26449L45.5628 0.447111L46.4554 0.751798Z" fill="var(--fill-0, #7A88FE)"/>
</g>
</svg>
